HIERARCHY
ROOT Hips
{
	OFFSET 0.00 0.00 0.00
	CHANNELS 6 Xposition Yposition Zposition Xrotation Yrotation Zrotation
	JOINT Spine
	{
		OFFSET 0.00000 7.17041 0.00000
		CHANNELS 3 Xrotation Yrotation Zrotation
		JOINT Head
		{
			OFFSET 0.00000 14.27615 0.00000
			CHANNELS 3 Xrotation Yrotation Zrotation
			End Site
			{
				OFFSET 0.00000 4.52755 0.00000
			}
		}
		JOINT LeftShoulder
		{
			OFFSET 0.00000 10.71824 0.00000
			CHANNELS 3 Xrotation Yrotation Zrotation
			JOINT LeftArm
			{
				OFFSET 7.05887 0.00000 0.00000
				CHANNELS 3 Xrotation Yrotation Zrotation
				JOINT LeftForeArm
				{
					OFFSET 10.95552 0.00000 0.00000
					CHANNELS 3 Yrotation Zrotation Xrotation
					JOINT LeftHand
					{
						OFFSET 8.19372 0.00000 0.00000
						CHANNELS 3 Xrotation Yrotation Zrotation
						JOINT LeftHandThumb1
						{
							OFFSET 0.00000 0.00000 0.00000
							CHANNELS 3 Xrotation Zrotation Yrotation
							End Site
							{
								OFFSET 0.00000 0.00000 3.93700
							}
						}
						End Site
						{
							OFFSET 3.93700 0.00000 0.00000
						}
					}
				}
			}
		}
		JOINT RightShoulder
		{
			OFFSET 0.00000 10.71824 0.00000
			CHANNELS 3 Xrotation Yrotation Zrotation
			JOINT RightArm
			{
				OFFSET -7.05887 0.00000 0.00000
				CHANNELS 3 Xrotation Yrotation Zrotation
				JOINT RightForeArm
				{
					OFFSET -10.95552 0.00000 0.00000
					CHANNELS 3 Yrotation Zrotation Xrotation
					JOINT RightHand
					{
						OFFSET -8.19372 0.00000 0.00000
						CHANNELS 3 Xrotation Yrotation Zrotation
						JOINT RightHandThumb1
						{
							OFFSET 0.00000 0.00000 0.00000
							CHANNELS 3 Xrotation Zrotation Yrotation
							End Site
							{
								OFFSET 0.00000 0.00000 3.93700
							}
						}
						End Site
						{
							OFFSET -3.93700 0.00000 0.00000
						}
					}
				}
			}
		}
	}
	JOINT LeftUpLeg
	{
		OFFSET 4.31835 0.00000 0.00000
		CHANNELS 3 Xrotation Yrotation Zrotation
		JOINT LeftLeg
		{
			OFFSET 0.00000 -17.32364 0.00000
			CHANNELS 3 Xrotation Yrotation Zrotation
			JOINT LeftFoot
			{
				OFFSET 0.00000 -16.27037 0.00000
				CHANNELS 3 Xrotation Yrotation Zrotation
				JOINT LeftToeBase
				{
					OFFSET 0.00000 -1.27412 4.75510
					CHANNELS 3 Xrotation Yrotation Zrotation
					End Site
					{
						OFFSET 0.00000 0.00000 2.95275
					}
				}
			}
		}
	}
	JOINT RightUpLeg
	{
		OFFSET -4.31835 0.00000 0.00000
		CHANNELS 3 Xrotation Yrotation Zrotation
		JOINT RightLeg
		{
			OFFSET 0.00000 -17.32364 0.00000
			CHANNELS 3 Xrotation Yrotation Zrotation
			JOINT RightFoot
			{
				OFFSET 0.00000 -16.27037 0.00000
				CHANNELS 3 Xrotation Yrotation Zrotation
				JOINT RightToeBase
				{
					OFFSET 0.00000 -1.27412 4.75510
					CHANNELS 3 Xrotation Yrotation Zrotation
					End Site
					{
						OFFSET 0.00000 0.00000 2.95275
					}
				}
			}
		}
	}
}
MOTION
Frames: 17
Frame Time: 0.008333
 -6.8426 35.2566 -11.1644 -1.6147 -4.3507 -5.4848 -2.1531 -3.1161 9.4408 3.7579 8.8066 -6.0838 10.6578 22.4768 5.9005 -61.5237 -5.0291 -19.0925 -4.0852 0.0000 22.7068 0.0914 3.4403 -1.5220 33.1476 -0.0000 26.2537 -12.5535 -2.5607 -19.5211 -14.8016 -4.8657 13.9004 13.9750 -0.0000 34.1203 0.4035 -1.3589 16.5394 32.8623 0.0000 -24.3270 10.7813 13.3679 1.5881 -9.4038 -0.0000 0.0000 -15.6340 29.3601 7.5467 21.6713 -0.0000 0.0000 9.2309 -0.8397 5.1065 -3.9208 0.0000 -0.0000 -7.2447 -26.5597 -6.4680 13.3436 0.0000 0.0000
 -6.8411 35.2561 -11.1619 -1.6157 -4.3740 -5.4827 -2.1625 -3.0998 9.4389 3.7656 8.8022 -6.0973 10.6370 22.4863 5.8729 -61.4373 -5.0081 -19.0949 -4.0589 0.0000 22.7757 0.0874 3.3173 -1.5104 33.1476 -0.0000 26.2537 -12.5440 -2.5649 -19.5406 -14.8308 -4.8765 13.9053 13.9538 -0.0000 34.1059 0.3932 -1.3291 16.4843 32.8623 0.0000 -24.3270 10.7932 13.3772 1.5798 -9.4115 -0.0000 0.0000 -15.6353 29.3748 7.5581 21.6344 -0.0000 0.0000 9.2292 -0.8146 5.1001 -3.9206 0.0000 -0.0000 -7.2625 -26.5739 -6.5171 13.3712 -0.0000 -0.0000
 -6.8393 35.2559 -11.1595 -1.6078 -4.3926 -5.4856 -2.1838 -3.0902 9.4468 3.7812 8.8039 -6.1208 10.6357 22.5077 5.8358 -61.3750 -4.9942 -19.1099 -4.0528 0.0000 22.6850 0.0896 3.2772 -1.5670 33.1476 -0.0000 26.2537 -12.5519 -2.5502 -19.5588 -14.8429 -4.9107 13.8987 13.9610 -0.0000 34.0641 0.3863 -1.3015 16.5340 32.8623 0.0000 -24.3270 10.7938 13.3888 1.5743 -9.4190 0.0000 -0.0000 -15.6462 29.3862 7.5589 21.6564 0.0000 0.0000 9.2194 -0.8016 5.0971 -3.9158 0.0000 0.0000 -7.2632 -26.5597 -6.5104 13.3625 0.0000 -0.0000
 -6.8372 35.2557 -11.1574 -1.6086 -4.4122 -5.4855 -2.1931 -3.0748 9.4436 3.7909 8.7924 -6.1218 10.6510 22.5058 5.7936 -61.3675 -4.9572 -19.0953 -4.0574 0.0000 22.6902 0.0874 3.1924 -1.5686 33.1476 -0.0000 26.2537 -12.5541 -2.5464 -19.5645 -14.8483 -4.9224 13.8879 13.9419 -0.0000 34.0140 0.3806 -1.2816 16.5402 32.8623 0.0000 -24.3270 10.8027 13.3762 1.5705 -9.4153 -0.0000 -0.0000 -15.6410 29.3849 7.5657 21.6026 -0.0000 0.0000 9.2162 -0.7646 5.0894 -3.9109 -0.0000 -0.0000 -7.2714 -26.5677 -6.5369 13.3943 -0.0000 0.0000
 -6.8355 35.2558 -11.1552 -1.6079 -4.4352 -5.4873 -2.2012 -3.0651 9.4523 3.7978 8.7975 -6.1439 10.6703 22.5349 5.7362 -61.3547 -4.9486 -19.1047 -4.0376 0.0000 22.7011 0.0841 3.1175 -1.5454 33.1476 -0.0000 26.2537 -12.5463 -2.5329 -19.5880 -14.8870 -4.9608 13.8895 13.9548 -0.0000 34.0209 0.3823 -1.2869 16.5474 32.8623 0.0000 -24.3270 10.8075 13.3880 1.5648 -9.4153 0.0000 0.0000 -15.6488 29.4067 7.5522 21.5953 0.0000 -0.0000 9.2094 -0.7509 5.0859 -3.9039 0.0000 -0.0000 -7.2434 -26.5664 -6.4707 13.3108 0.0000 -0.0000
 -6.8347 35.2555 -11.1529 -1.6081 -4.4563 -5.4907 -2.2087 -3.0481 9.4556 3.7961 8.7914 -6.1559 10.6754 22.5601 5.6941 -61.3584 -4.9309 -19.1244 -4.0236 0.0000 22.6700 0.0794 3.0717 -1.4817 33.1476 -0.0000 26.2537 -12.5697 -2.5195 -19.6099 -14.8838 -4.9922 13.8946 13.9594 -0.0000 33.9954 0.3830 -1.2886 16.5545 32.8623 0.0000 -24.3270 10.8164 13.4059 1.5611 -9.4233 0.0000 0.0000 -15.6632 29.4181 7.5660 21.6209 0.0000 -0.0000 9.2065 -0.7129 5.0836 -3.9012 0.0000 0.0000 -7.2815 -26.5741 -6.5374 13.4010 0.0000 -0.0000
 -6.8340 35.2555 -11.1508 -1.6068 -4.4704 -5.4946 -2.2213 -3.0326 9.4556 3.8061 8.7657 -6.1661 10.6678 22.5705 5.6648 -61.3558 -4.9001 -19.1320 -4.0310 0.0000 22.6376 0.0758 2.9939 -1.4503 33.1476 -0.0000 26.2537 -12.5703 -2.5150 -19.6248 -14.8841 -5.0183 13.8932 13.9554 -0.0000 33.9618 0.3936 -1.3186 16.6217 32.8623 0.0000 -24.3270 10.8154 13.4117 1.5624 -9.4147 -0.0000 0.0000 -15.6671 29.4215 7.5696 21.6049 -0.0000 -0.0000 9.2016 -0.6981 5.0840 -3.8952 0.0000 0.0000 -7.2532 -26.5857 -6.4990 13.3365 0.0000 -0.0000
 -6.8333 35.2555 -11.1490 -1.6060 -4.4865 -5.5007 -2.2281 -3.0250 9.4639 3.8108 8.7504 -6.1878 10.6920 22.5922 5.6185 -61.3948 -4.8570 -19.1433 -4.0605 0.0000 22.5909 0.0723 2.9924 -1.3841 33.1476 -0.0000 26.2537 -12.5901 -2.4915 -19.6490 -14.8762 -5.0495 13.9026 13.9495 -0.0000 33.9398 0.3921 -1.3110 16.6524 32.8623 0.0000 -24.3270 10.8189 13.4076 1.5656 -9.4142 -0.0000 0.0000 -15.6660 29.4434 7.5720 21.5603 0.0000 -0.0000 9.1960 -0.6789 5.0875 -3.8886 -0.0000 -0.0000 -7.2706 -26.5715 -6.5297 13.3419 -0.0000 -0.0000
 -6.8324 35.2554 -11.1469 -1.6056 -4.4985 -5.5026 -2.2357 -3.0168 9.4660 3.8119 8.7248 -6.2158 10.6866 22.6205 5.6001 -61.4145 -4.8179 -19.1721 -4.0514 0.0000 22.5538 0.0700 2.9621 -1.3535 33.1476 -0.0000 26.2537 -12.5964 -2.4760 -19.6618 -14.8824 -5.0820 13.8981 13.9562 -0.0000 33.9521 0.3969 -1.3248 16.6797 32.8623 0.0000 -24.3270 10.8260 13.4027 1.5652 -9.4158 -0.0000 -0.0000 -15.6804 29.4534 7.5661 21.5942 0.0000 -0.0000 9.1927 -0.6618 5.0876 -3.8824 0.0000 0.0000 -7.2776 -26.5938 -6.5324 13.3831 -0.0000 0.0000
 -6.8310 35.2551 -11.1448 -1.6073 -4.5104 -5.5057 -2.2396 -3.0105 9.4749 3.8194 8.7265 -6.2383 10.7087 22.6336 5.5669 -61.4285 -4.7692 -19.1795 -4.0673 0.0000 22.5069 0.0672 2.9340 -1.3123 33.1476 -0.0000 26.2537 -12.6205 -2.4509 -19.6862 -14.8612 -5.1098 13.9000 13.9550 -0.0000 33.9591 0.3908 -1.3047 16.6759 32.8623 0.0000 -24.3270 10.8340 13.4224 1.5624 -9.4280 0.0000 -0.0000 -15.6513 29.4631 7.5894 21.5403 0.0000 0.0000 9.1890 -0.6632 5.0866 -3.8684 0.0000 -0.0000 -7.2833 -26.5900 -6.5186 13.3596 0.0000 -0.0000
 -6.8300 35.2554 -11.1425 -1.6091 -4.5229 -5.5093 -2.2503 -2.9893 9.4743 3.8337 8.6999 -6.2474 10.7153 22.6206 5.5518 -61.4042 -4.7351 -19.1661 -4.0518 0.0000 22.3793 0.0666 2.7161 -1.4060 33.1476 -0.0000 26.2537 -12.6053 -2.4506 -19.6855 -14.8806 -5.1358 13.8816 13.9511 -0.0000 33.9625 0.3874 -1.2924 16.6883 32.8623 0.0000 -24.3270 10.8450 13.4046 1.5620 -9.4282 0.0000 0.0000 -15.6605 29.4965 7.5840 21.5082 -0.0000 0.0000 9.1882 -0.6433 5.0845 -3.8631 0.0000 0.0000 -7.2820 -26.5737 -6.5086 13.3271 -0.0000 -0.0000
 -6.8294 35.2553 -11.1412 -1.6122 -4.5290 -5.5087 -2.2507 -2.9860 9.4749 3.8441 8.7158 -6.2638 10.7177 22.6231 5.5361 -61.3777 -4.6837 -19.1577 -4.0564 0.0000 22.2598 0.0594 2.6104 -1.3044 33.1476 -0.0000 26.2537 -12.6219 -2.4263 -19.7037 -14.8348 -5.1617 13.8844 13.9597 -0.0000 33.9566 0.3888 -1.2963 16.6974 32.8623 0.0000 -24.3270 10.8515 13.4108 1.5580 -9.4254 0.0000 -0.0000 -15.6589 29.4914 7.5626 21.4907 -0.0000 0.0000 9.1846 -0.6557 5.0826 -3.8450 0.0000 0.0000 -7.2896 -26.5631 -6.5169 13.3267 0.0000 -0.0000
 -6.8293 35.2553 -11.1395 -1.6124 -4.5249 -5.5108 -2.2580 -2.9789 9.4745 3.8524 8.6925 -6.2818 10.7086 22.6165 5.5285 -61.3488 -4.6466 -19.1558 -4.0565 0.0000 22.1479 0.0555 2.5141 -1.2640 33.1476 -0.0000 26.2537 -12.6101 -2.4253 -19.7096 -14.8492 -5.1846 13.8731 13.9503 -0.0000 33.9763 0.3884 -1.2941 16.7072 32.8623 0.0000 -24.3270 10.8532 13.4393 1.5573 -9.4345 0.0000 -0.0000 -15.6713 29.4540 7.5678 21.5832 0.0000 -0.0000 9.1891 -0.6515 5.0856 -3.8489 -0.0000 -0.0000 -7.2892 -26.5728 -6.5064 13.3307 0.0000 -0.0000
 -6.8287 35.2553 -11.1379 -1.6149 -4.5273 -5.5114 -2.2606 -2.9699 9.4742 3.8648 8.6681 -6.3076 10.7053 22.6237 5.5189 -61.3345 -4.6092 -19.1667 -4.0687 0.0000 22.0847 0.0521 2.4431 -1.2232 33.1476 -0.0000 26.2537 -12.6099 -2.4160 -19.7211 -14.8340 -5.2055 13.8738 13.9465 -0.0000 33.9869 0.3854 -1.2847 16.6980 32.8623 0.0000 -24.3270 10.8585 13.4322 1.5566 -9.4321 0.0000 0.0000 -15.6698 29.4656 7.5602 21.5462 -0.0000 0.0000 9.1876 -0.6468 5.0835 -3.8353 -0.0000 -0.0000 -7.3069 -26.5719 -6.5521 13.3998 0.0000 0.0000
 -6.8278 35.2555 -11.1363 -1.6160 -4.5352 -5.5170 -2.2667 -2.9411 9.4855 3.8760 8.6568 -6.3352 10.7053 22.6084 5.5090 -61.3552 -4.5499 -19.1744 -4.0815 0.0000 22.0695 0.0513 2.3836 -1.2327 33.1476 -0.0000 26.2537 -12.6120 -2.4182 -19.7336 -14.8250 -5.2262 13.8625 13.9483 -0.0000 33.9952 0.3885 -1.2946 16.7051 32.8623 0.0000 -24.3270 10.8630 13.4448 1.5580 -9.4319 -0.0000 -0.0000 -15.6824 29.4580 7.5626 21.5641 -0.0000 0.0000 9.1845 -0.6408 5.0882 -3.8257 0.0000 0.0000 -7.3158 -26.5841 -6.5434 13.4313 -0.0000 0.0000
 -6.8278 35.2554 -11.1350 -1.6167 -4.5208 -5.5153 -2.2706 -2.9502 9.4829 3.8931 8.6629 -6.3573 10.7035 22.6154 5.4895 -61.4001 -4.5125 -19.1788 -4.0844 0.0000 22.0507 0.0500 2.3040 -1.2433 33.1476 -0.0000 26.2537 -12.5675 -2.4269 -19.7332 -14.8350 -5.2195 13.8509 13.9082 -0.0000 33.9672 0.3848 -1.2852 16.6694 32.8623 0.0000 -24.3270 10.8644 13.4341 1.5581 -9.4303 0.0000 0.0000 -15.6764 29.4587 7.5656 21.5477 0.0000 -0.0000 9.1874 -0.6434 5.0864 -3.8227 0.0000 0.0000 -7.2846 -26.5830 -6.4744 13.2760 0.0000 -0.0000
 -6.8282 35.2553 -11.1346 -1.6104 -4.5085 -5.5167 -2.2801 -2.9527 9.4815 3.9048 8.6561 -6.3807 10.6968 22.6152 5.4915 -61.4367 -4.4537 -19.1874 -4.1030 0.0000 22.0535 0.0489 2.2565 -1.2421 33.1476 -0.0000 26.2537 -12.5625 -2.4239 -19.7360 -14.8181 -5.2303 13.8423 13.8942 -0.0000 33.9625 0.3784 -1.2633 16.6771 32.8623 0.0000 -24.3270 10.8583 13.4291 1.5623 -9.4347 0.0000 0.0000 -15.6778 29.4483 7.5627 21.5596 0.0000 -0.0000 9.1818 -0.6549 5.0937 -3.8180 0.0000 0.0000 -7.3176 -26.6136 -6.5507 13.4013 -0.0000 0.0000
